<svg width="103" height="103" viewBox="0 0 103 103" fill="none" xmlns="http://www.w3.org/2000/svg">
<circle cx="51.5" cy="51.5" r="51.5" transform="rotate(180 51.5 51.5)" fill="url(#paint0_linear_381_583)"/>
<path fill-rule="evenodd" clip-rule="evenodd" d="M72.1383 47.5095C74.5522 47.959 76.423 49.8778 76.7912 52.3055C77.1853 54.9042 77.7099 58.3472 78.1815 61.3885C78.7369 64.9699 76.0244 69.5044 73.7204 72.3019C71.7447 74.7007 69.7508 78.1965 68.4303 82.8276C67.5546 85.899 63.9966 88.3917 62.553 85.5428C61.9167 84.2871 61.7066 82.672 61.8364 80.736C61.9075 79.7555 62.159 77.0032 62.2989 75.4887C62.3569 74.8606 62.7796 74.3274 63.3772 74.1256L63.8433 73.9682C64.2889 73.8177 64.5677 73.3751 64.5109 72.9082C64.4517 72.4207 64.045 72.0498 63.5541 72.0358L55.8316 71.8143C52.986 71.7327 50.5845 69.5677 50.5425 66.7212C50.414 57.9973 52.9508 51.8345 57.5383 47.0222C58.8491 45.6471 60.8448 45.2364 62.7009 45.6411C65.5485 46.262 69.3122 46.9833 72.1383 47.5095ZM82.3548 44.4501C84.5621 44.3915 86.3905 46.1505 86.4173 48.3584L86.6549 67.9569C86.668 69.0371 85.7959 69.9198 84.7156 69.9198C83.8057 69.9198 83.018 69.2872 82.8218 68.3986L78.5954 49.2598C78.0592 46.8315 79.8689 44.5162 82.3548 44.4501Z" fill="white"/>
<path fill-rule="evenodd" clip-rule="evenodd" d="M28.9389 55.4905C26.5249 55.041 24.6542 53.1222 24.286 50.6945C23.8919 48.0958 23.3673 44.6528 22.8956 41.6115C22.3402 38.0301 25.0528 33.4956 27.3568 30.6981C29.3325 28.2993 31.3264 24.8035 32.6468 20.1724C33.5226 17.101 37.0806 14.6083 38.5242 17.4572C39.1604 18.7129 39.3705 20.328 39.2407 22.264C39.1696 23.2445 38.9182 25.9968 38.7783 27.5113C38.7203 28.1394 38.2976 28.6726 37.7 28.8744L37.2339 29.0318C36.7883 29.1823 36.5095 29.6249 36.5662 30.0918C36.6254 30.5793 37.0322 30.9502 37.523 30.9642L45.2455 31.1857C48.0912 31.2673 50.4927 33.4323 50.5346 36.2788C50.6632 45.0027 48.1264 51.1655 43.5389 55.9778C42.2281 57.3529 40.2323 57.7636 38.3762 57.3589C35.5286 56.738 31.765 56.0167 28.9389 55.4905ZM18.7223 58.5499C16.515 58.6085 14.6866 56.8495 14.6599 54.6416L14.4222 35.0431C14.4091 33.9629 15.2812 33.0802 16.3615 33.0802C17.2715 33.0802 18.0591 33.7128 18.2553 34.6014L22.4817 53.7402C23.018 56.1685 21.2082 58.4838 18.7223 58.5499Z" fill="white"/>
<defs>
<linearGradient id="paint0_linear_381_583" x1="51.5" y1="0" x2="41.9842" y2="103" gradientUnits="userSpaceOnUse">
<stop stop-color="#FEA110"/>
<stop offset="1" stop-color="#FAC470"/>
</linearGradient>
</defs>
</svg>
