<svg width="103" height="103" viewBox="0 0 103 103" fill="none" xmlns="http://www.w3.org/2000/svg">
<circle cx="51.5" cy="51.5" r="51.5" fill="url(#paint0_linear_381_571)"/>
<path fill-rule="evenodd" clip-rule="evenodd" d="M45.7311 74.8464C44.0196 74.7164 42.5812 73.5251 42.1481 71.8641C40.9607 67.3104 38.5744 58.1826 37.0485 52.5018C36.3913 50.0551 38.0398 47.0032 39.8303 45.2109C43.5088 41.5287 47.8638 33.9373 48.9706 22.6314C49.1881 20.4095 51.1357 18.4922 53.1615 19.4304C56.2071 20.8408 57.5503 23.9259 57.72 28.3786C57.7639 29.7228 57.8167 33.5031 57.8436 35.5836C57.8547 36.4464 57.3562 37.2324 56.5721 37.5927L55.9606 37.8737C55.376 38.1424 55.0602 38.7845 55.2043 39.4116C55.3548 40.0662 55.9614 40.5125 56.6312 40.4612L70.4779 39.4015C72.4621 39.2496 74.2706 40.5799 74.6107 42.5406C77.1199 57.004 74.0921 67.0717 67.1211 75.2043C66.2568 76.2125 64.9189 76.6496 63.6013 76.484C58.674 75.8647 50.1592 75.1829 45.7311 74.8464ZM33.5888 80.8749C31.3764 81.1678 29.3522 79.5935 29.0913 77.3771L25.789 49.3239C25.6163 47.8562 26.676 46.5302 28.1457 46.3753C29.3837 46.2447 30.5459 46.9924 30.9403 48.1731L39.9783 75.229C40.7746 77.6129 39.201 80.1319 36.7093 80.4618L33.5888 80.8749Z" fill="white"/>
<defs>
<linearGradient id="paint0_linear_381_571" x1="72.9101" y1="-1.03859e-06" x2="51.5" y2="103" gradientUnits="userSpaceOnUse">
<stop stop-color="#4FD5A5"/>
<stop offset="1" stop-color="#25A467"/>
</linearGradient>
</defs>
</svg>
