<svg xmlns="http://www.w3.org/2000/svg" width="22" height="22" viewBox="0 0 22 22" fill="none">
    <g style="mix-blend-mode:multiply" opacity="0.6">
      <mask id="path-1-inside-1_1_782" fill="white">
        <path fill-rule="evenodd" clip-rule="evenodd" d="M10.002 0.42722C10.002 0.186308 9.8071 -0.00991254 9.56695 -0.000138261C8.30699 0.0511411 7.06473 0.324785 5.89762 0.809338C4.73051 1.29389 3.65905 1.98084 2.73195 2.83757C2.55524 3.00087 2.55583 3.27778 2.72578 3.44813L2.97179 3.69471C3.07374 3.79689 3.07359 3.96206 2.9742 4.06673C1.33569 5.79228 0.249769 8.05159 0.00150936 10.5584C-0.0163974 10.7392 0.127353 10.8939 0.309052 10.8943L0.761006 10.895C0.934629 10.8952 1.07482 11.0366 1.08073 11.2101C1.24317 15.9864 5.08665 19.8265 9.85695 19.9697C10.0014 19.9741 10.1191 20.0909 10.1191 20.2354V21.022C10.1191 21.6084 11.8197 21.7888 14.436 20.6611C17.0523 19.5334 17.6329 18.5238 17.403 18.2473C17.3354 18.1659 17.0593 17.8836 16.7008 17.5232C16.5987 17.4205 16.5992 17.2546 16.6988 17.1495C18.1761 15.5921 19.1075 13.5096 19.1857 11.2101C19.1916 11.0366 19.3318 10.8952 19.5054 10.895C20.1913 10.8944 20.859 10.8917 21.509 10.887C21.6901 10.8857 21.8329 10.7311 21.8149 10.5508C21.2607 4.99336 16.5893 0.654276 10.9086 0.654276C10.6927 0.654276 10.4783 0.660541 10.2655 0.672901C10.1235 0.68115 10.002 0.569472 10.002 0.42722Z"/>
      </mask>
      <path fill-rule="evenodd" clip-rule="evenodd" d="M10.002 0.42722C10.002 0.186308 9.8071 -0.00991254 9.56695 -0.000138261C8.30699 0.0511411 7.06473 0.324785 5.89762 0.809338C4.73051 1.29389 3.65905 1.98084 2.73195 2.83757C2.55524 3.00087 2.55583 3.27778 2.72578 3.44813L2.97179 3.69471C3.07374 3.79689 3.07359 3.96206 2.9742 4.06673C1.33569 5.79228 0.249769 8.05159 0.00150936 10.5584C-0.0163974 10.7392 0.127353 10.8939 0.309052 10.8943L0.761006 10.895C0.934629 10.8952 1.07482 11.0366 1.08073 11.2101C1.24317 15.9864 5.08665 19.8265 9.85695 19.9697C10.0014 19.9741 10.1191 20.0909 10.1191 20.2354V21.022C10.1191 21.6084 11.8197 21.7888 14.436 20.6611C17.0523 19.5334 17.6329 18.5238 17.403 18.2473C17.3354 18.1659 17.0593 17.8836 16.7008 17.5232C16.5987 17.4205 16.5992 17.2546 16.6988 17.1495C18.1761 15.5921 19.1075 13.5096 19.1857 11.2101C19.1916 11.0366 19.3318 10.8952 19.5054 10.895C20.1913 10.8944 20.859 10.8917 21.509 10.887C21.6901 10.8857 21.8329 10.7311 21.8149 10.5508C21.2607 4.99336 16.5893 0.654276 10.9086 0.654276C10.6927 0.654276 10.4783 0.660541 10.2655 0.672901C10.1235 0.68115 10.002 0.569472 10.002 0.42722Z" fill="#0057FF" fill-opacity="0.1"/>
      <path d="M9.56695 -0.000138261L9.50595 -1.4989H9.50595L9.56695 -0.000138261ZM5.89762 0.809338L6.47278 2.19469H6.47278L5.89762 0.809338ZM2.73195 2.83757L3.74998 3.93922L2.73195 2.83757ZM2.72578 3.44813L3.78766 2.38869L2.72578 3.44813ZM0.00150936 10.5584L1.49421 10.7062L0.00150936 10.5584ZM0.309052 10.8943L0.305825 12.3943L0.306783 12.3943L0.309052 10.8943ZM0.761006 10.895L0.758737 12.395H0.759705L0.761006 10.895ZM1.08073 11.2101L-0.418408 11.2611L-0.418408 11.2611L1.08073 11.2101ZM10.1191 21.022L11.6191 21.022V21.022H10.1191ZM14.436 20.6611L13.8422 19.2836L13.8422 19.2836L14.436 20.6611ZM17.403 18.2473L16.2496 19.2062L16.2496 19.2062L17.403 18.2473ZM19.1857 11.2101L17.6866 11.1591L17.6866 11.1591L19.1857 11.2101ZM19.5054 10.895L19.5041 9.39502L19.5054 10.895ZM21.509 10.887L21.4981 9.38703H21.4981L21.509 10.887ZM21.8149 10.5508L20.3223 10.6997V10.6997L21.8149 10.5508ZM16.7008 17.5232L15.6373 18.581L16.7008 17.5232ZM9.85695 19.9697L9.81193 21.4691L9.85695 19.9697ZM2.9742 4.06673L4.06194 5.0996L2.9742 4.06673ZM9.62794 1.49862C8.97293 1.52528 8.50203 0.994468 8.50204 0.427208L11.502 0.427231C11.502 -0.621852 10.6413 -1.5451 9.50595 -1.4989L9.62794 1.49862ZM6.47278 2.19469C7.47644 1.77799 8.54462 1.54271 9.62794 1.49862L9.50595 -1.4989C8.06935 -1.44043 6.65302 -1.12842 5.32246 -0.57601L6.47278 2.19469ZM3.74998 3.93922C4.54753 3.2022 5.46912 2.61138 6.47278 2.19469L5.32246 -0.57601C3.9919 -0.0235991 2.77057 0.759481 1.71393 1.73593L3.74998 3.93922ZM3.78766 2.38869C4.19 2.79196 4.22768 3.49777 3.74998 3.93922L1.71393 1.73593C0.882796 2.50397 0.921649 3.7636 1.6639 4.50757L3.78766 2.38869ZM4.03367 2.63527L3.78766 2.38869L1.6639 4.50757L1.90991 4.75415L4.03367 2.63527ZM1.49421 10.7062C1.70854 8.54197 2.64549 6.59129 4.06194 5.0996L1.88646 3.03386C0.0258802 4.99327 -1.209 7.5612 -1.49119 10.4106L1.49421 10.7062ZM0.31228 9.39434C0.99023 9.3958 1.56611 9.9802 1.49421 10.7062L-1.49119 10.4106C-1.5989 11.4983 -0.735524 12.3921 0.305825 12.3943L0.31228 9.39434ZM0.763276 9.39503L0.311322 9.39434L0.306783 12.3943L0.758737 12.395L0.763276 9.39503ZM2.57986 11.1591C2.54771 10.2137 1.77928 9.39591 0.762308 9.39502L0.759705 12.395C0.0899802 12.3944 -0.398057 11.8594 -0.418408 11.2611L2.57986 11.1591ZM9.90197 18.4704C5.92577 18.351 2.71552 15.148 2.57986 11.1591L-0.418408 11.2611C-0.229183 16.8248 4.24754 21.302 9.81193 21.4691L9.90197 18.4704ZM8.61912 20.2354V21.022H11.6191V20.2354H8.61912ZM8.61912 21.022C8.61912 22.0569 9.40692 22.5759 9.85886 22.7604C10.3314 22.9532 10.8612 22.9981 11.3414 22.9837C12.3348 22.9539 13.6035 22.6534 15.0297 22.0386L13.8422 19.2836C12.6521 19.7966 11.7624 19.9697 11.2515 19.985C10.9795 19.9932 10.9206 19.9535 10.9926 19.9828C11.0439 20.0038 11.6191 20.2803 11.6191 21.022L8.61912 21.022ZM15.0297 22.0386C16.4304 21.4349 17.4076 20.8135 18.0284 20.2144C18.3323 19.9212 18.6184 19.5686 18.7889 19.1595C18.936 18.8066 19.1452 17.9964 18.5565 17.2883L16.2496 19.2062C15.7758 18.6364 15.9987 18.0561 16.0198 18.0055C16.0643 17.8987 16.0848 17.9209 15.9452 18.0556C15.6792 18.3124 15.0579 18.7596 13.8422 19.2836L15.0297 22.0386ZM18.5565 17.2883C18.4337 17.1406 18.0902 16.793 17.7644 16.4654L15.6373 18.581C15.815 18.7596 15.969 18.9157 16.0854 19.0354C16.1439 19.0955 16.1898 19.1434 16.2231 19.1788C16.2644 19.2226 16.2655 19.2253 16.2496 19.2062L18.5565 17.2883ZM17.6866 11.1591C17.6213 13.0789 16.8449 14.8158 15.6105 16.1172L17.7871 18.1818C19.5072 16.3683 20.5937 13.9403 20.6848 11.2611L17.6866 11.1591ZM19.5041 9.39502C18.4873 9.39595 17.7187 10.2135 17.6866 11.1591L20.6848 11.2611C20.6645 11.8596 20.1764 12.3944 19.5068 12.395L19.5041 9.39502ZM21.4981 9.38703C20.8515 9.39171 20.1869 9.39439 19.5041 9.39502L19.5068 12.395C20.1957 12.3944 20.8666 12.3917 21.5198 12.387L21.4981 9.38703ZM20.3223 10.6997C20.2502 9.97618 20.8219 9.39192 21.4981 9.38703L21.5198 12.387C22.5584 12.3794 23.4156 11.486 23.3075 10.402L20.3223 10.6997ZM10.9086 2.15428C15.8058 2.15428 19.8433 5.8965 20.3223 10.6997L23.3075 10.402C22.6781 4.09021 17.3727 -0.845724 10.9086 -0.845724V2.15428ZM10.3525 2.17038C10.5364 2.1597 10.7218 2.15428 10.9086 2.15428V-0.845724C10.6637 -0.845724 10.4203 -0.838616 10.1786 -0.824575L10.3525 2.17038ZM17.7644 16.4654C18.252 16.9556 18.2286 17.7164 17.7871 18.1818L15.6105 16.1172C14.9697 16.7929 14.9455 17.8853 15.6373 18.581L17.7644 16.4654ZM10.1786 -0.824575C10.8738 -0.864958 11.502 -0.316953 11.502 0.42723L8.50204 0.427209C8.50203 1.4559 9.37329 2.22726 10.3525 2.17038L10.1786 -0.824575ZM9.81193 21.4691C9.1781 21.45 8.61912 20.9337 8.61912 20.2354H11.6191C11.6191 19.2481 10.8247 18.4981 9.90197 18.4704L9.81193 21.4691ZM1.90991 4.75415C1.42186 4.26497 1.44204 3.50188 1.88646 3.03386L4.06194 5.0996C4.70513 4.42223 4.72562 3.3288 4.03367 2.63527L1.90991 4.75415Z" fill="#0057FF" mask="url(#path-1-inside-1_1_782)"/>
    </g>
  </svg>