<svg xmlns="http://www.w3.org/2000/svg" width="27" height="28" viewBox="0 0 27 28" fill="none">
  <g filter="url(#filter0_b_1_912)">
    <circle cx="13.5" cy="13.7988" r="13.5" transform="rotate(180 13.5 13.7988)" fill="url(#paint0_linear_1_912)"/>
  </g>
  <path fill-rule="evenodd" clip-rule="evenodd" d="M18.9105 12.7528C19.5433 12.8706 20.0337 13.3736 20.1302 14.01C20.2335 14.6912 20.371 15.5937 20.4946 16.391C20.6402 17.3298 19.9292 18.5184 19.3252 19.2518C18.8073 19.8806 18.2846 20.7969 17.9385 22.0109C17.7089 22.8161 16.7762 23.4695 16.3978 22.7227C16.231 22.3935 16.176 21.9701 16.21 21.4626C16.2286 21.2056 16.2945 20.4841 16.3312 20.0871C16.3464 19.9225 16.4572 19.7827 16.6139 19.7298L16.7361 19.6885C16.8529 19.6491 16.9259 19.5331 16.9111 19.4107C16.8956 19.2829 16.7889 19.1857 16.6603 19.182L14.6359 19.1239C13.89 19.1025 13.2605 18.535 13.2495 17.7889C13.2158 15.502 13.8807 13.8865 15.0833 12.625C15.4269 12.2646 15.9501 12.1569 16.4366 12.263C17.1831 12.4257 18.1696 12.6148 18.9105 12.7528ZM21.5886 11.9508C22.1672 11.9354 22.6465 12.3965 22.6535 12.9753L22.7158 18.1128C22.7192 18.3959 22.4906 18.6273 22.2075 18.6273C21.9689 18.6273 21.7625 18.4615 21.711 18.2286L20.6031 13.2116C20.4626 12.5751 20.937 11.9681 21.5886 11.9508Z" fill="white"/>
  <path fill-rule="evenodd" clip-rule="evenodd" d="M7.58599 14.8449C6.9532 14.7271 6.4628 14.2241 6.36629 13.5877C6.26299 12.9065 6.12547 12.0039 6.00183 11.2067C5.85625 10.2679 6.56729 9.07922 7.17126 8.3459C7.68916 7.71709 8.21183 6.80073 8.55798 5.58673C8.78754 4.7816 9.72021 4.12819 10.0986 4.87499C10.2654 5.20414 10.3205 5.62752 10.2865 6.13503C10.2678 6.39205 10.2019 7.11352 10.1652 7.51052C10.15 7.67517 10.0392 7.81493 9.88258 7.86784L9.7604 7.90911C9.64359 7.94857 9.57051 8.06459 9.58538 8.18698C9.6009 8.31476 9.70753 8.41198 9.8362 8.41567L11.8605 8.47372C12.6065 8.49511 13.236 9.06262 13.247 9.80879C13.2807 12.0957 12.6157 13.7111 11.4132 14.9726C11.0696 15.3331 10.5464 15.4407 10.0598 15.3347C9.3134 15.1719 8.32681 14.9828 7.58599 14.8449ZM4.90786 15.6468C4.32925 15.6622 3.84996 15.2011 3.84294 14.6224L3.78065 9.48489C3.77722 9.20172 4.00582 8.97033 4.28901 8.97033C4.52755 8.97033 4.73401 9.13617 4.78544 9.36909L5.89334 14.3861C6.0339 15.0226 5.5595 15.6295 4.90786 15.6468Z" fill="white"/>
  <defs>
    <filter id="filter0_b_1_912" x="-120.175" y="-119.876" width="267.35" height="267.35" filterUnits="userSpaceOnUse" color-interpolation-filters="sRGB">
      <feFlood flood-opacity="0" result="BackgroundImageFix"/>
      <feGaussianBlur in="BackgroundImageFix" stdDeviation="60.0874"/>
      <feComposite in2="SourceAlpha" operator="in" result="effect1_backgroundBlur_1_912"/>
      <feBlend mode="normal" in="SourceGraphic" in2="effect1_backgroundBlur_1_912" result="shape"/>
    </filter>
    <linearGradient id="paint0_linear_1_912" x1="13.5" y1="0.298828" x2="11.0056" y2="27.2988" gradientUnits="userSpaceOnUse">
      <stop stop-color="#FEA110"/>
      <stop offset="1" stop-color="#FAC470"/>
    </linearGradient>
  </defs>
</svg>