<svg width="36" height="35" viewBox="0 0 36 35" fill="none" xmlns="http://www.w3.org/2000/svg">
<g id="Group 2087330615">
<g id="Group 2087330580" filter="url(#filter0_f_1_389)">
<g id="Ellipse 5625" filter="url(#filter1_b_1_389)">
<circle cx="17.9916" cy="17.4336" r="7.08685" fill="url(#paint0_linear_1_389)"/>
</g>
<path id="Vector" fill-rule="evenodd" clip-rule="evenodd" d="M17.2336 19.9997C16.8015 19.9268 16.4625 19.5893 16.3904 19.1571C16.3145 18.702 16.2138 18.1017 16.1227 17.5672C16.0127 16.922 16.5097 16.1186 16.9558 15.6397C17.3581 15.2077 17.7688 14.5642 18.0349 13.7015C18.1998 13.1672 18.8044 12.7072 19.1259 13.1648C19.2897 13.3979 19.3453 13.7132 19.3168 14.1006C19.3031 14.272 19.2553 14.7479 19.2277 15.0199C19.2155 15.1398 19.1327 15.2405 19.0174 15.2759L18.9154 15.3072C18.834 15.3322 18.7826 15.4123 18.7939 15.4967C18.8053 15.5815 18.8765 15.6456 18.962 15.6478L20.5854 15.6901C21.0895 15.7032 21.518 16.0834 21.5266 16.5876C21.5536 18.173 21.037 19.2834 20.1046 20.1477C19.8747 20.3609 19.5483 20.4242 19.2409 20.3621C18.6528 20.2433 17.8236 20.0993 17.2336 19.9997ZM15.2901 20.5556C14.8642 20.5659 14.5119 20.2265 14.5062 19.8005L14.461 16.4126C14.4581 16.1992 14.6304 16.0247 14.8438 16.0247C15.0204 16.0247 15.1741 16.1455 15.2158 16.3171L16.0156 19.6095C16.1309 20.0841 15.7783 20.5438 15.2901 20.5556Z" fill="white"/>
</g>
<g id="Group 2087330565">
<g id="Ellipse 5625_2" filter="url(#filter2_b_1_389)">
<circle cx="17.9919" cy="15.2605" r="9.2605" fill="url(#paint1_linear_1_389)"/>
</g>
<path id="Vector_2" fill-rule="evenodd" clip-rule="evenodd" d="M17.0014 18.6144C16.4367 18.5191 15.9937 18.0782 15.8995 17.5133C15.8003 16.9187 15.6688 16.1342 15.5498 15.4358C15.406 14.5928 16.0555 13.5429 16.6383 12.9171C17.1641 12.3526 17.7007 11.5118 18.0485 10.3845C18.2639 9.68623 19.0539 9.08521 19.474 9.68308C19.6881 9.98777 19.7608 10.3997 19.7235 10.906C19.7056 11.13 19.6432 11.7517 19.6071 12.1072C19.5912 12.2639 19.4829 12.3954 19.3323 12.4417L19.199 12.4826C19.0927 12.5152 19.0255 12.62 19.0403 12.7303C19.0551 12.8411 19.1482 12.9248 19.2599 12.9277L21.3813 12.983C22.04 13.0001 22.5998 13.4968 22.611 14.1557C22.6464 16.2274 21.9713 17.6783 20.753 18.8078C20.4526 19.0864 20.026 19.1691 19.6244 19.088C18.8558 18.9327 17.7723 18.7445 17.0014 18.6144ZM14.4618 19.3408C13.9053 19.3542 13.4448 18.9107 13.4374 18.354L13.3783 13.9271C13.3746 13.6482 13.5997 13.4201 13.8786 13.4201C14.1094 13.4201 14.3102 13.578 14.3647 13.8023L15.4098 18.1046C15.5604 18.7247 15.0998 19.3254 14.4618 19.3408Z" fill="white"/>
</g>
</g>
<defs>
<filter id="filter0_f_1_389" x="0.904785" y="0.346706" width="34.1737" height="34.1737" filterUnits="userSpaceOnUse" color-interpolation-filters="sRGB">
<feFlood flood-opacity="0" result="BackgroundImageFix"/>
<feBlend mode="normal" in="SourceGraphic" in2="BackgroundImageFix" result="shape"/>
<feGaussianBlur stdDeviation="5" result="effect1_foregroundBlur_1_389"/>
</filter>
<filter id="filter1_b_1_389" x="-81.0623" y="-81.6203" width="198.108" height="198.108" filterUnits="userSpaceOnUse" color-interpolation-filters="sRGB">
<feFlood flood-opacity="0" result="BackgroundImageFix"/>
<feGaussianBlur in="BackgroundImageFix" stdDeviation="45.9835"/>
<feComposite in2="SourceAlpha" operator="in" result="effect1_backgroundBlur_1_389"/>
<feBlend mode="normal" in="SourceGraphic" in2="effect1_backgroundBlur_1_389" result="shape"/>
</filter>
<filter id="filter2_b_1_389" x="-111.443" y="-114.175" width="258.871" height="258.871" filterUnits="userSpaceOnUse" color-interpolation-filters="sRGB">
<feFlood flood-opacity="0" result="BackgroundImageFix"/>
<feGaussianBlur in="BackgroundImageFix" stdDeviation="60.0874"/>
<feComposite in2="SourceAlpha" operator="in" result="effect1_backgroundBlur_1_389"/>
<feBlend mode="normal" in="SourceGraphic" in2="effect1_backgroundBlur_1_389" result="shape"/>
</filter>
<linearGradient id="paint0_linear_1_389" x1="20.9379" y1="10.3467" x2="17.9916" y2="24.5204" gradientUnits="userSpaceOnUse">
<stop stop-color="#4FD5A5"/>
<stop offset="1" stop-color="#25A467"/>
</linearGradient>
<linearGradient id="paint1_linear_1_389" x1="21.8418" y1="6" x2="17.9919" y2="24.521" gradientUnits="userSpaceOnUse">
<stop stop-color="#4FD5A5"/>
<stop offset="1" stop-color="#25A467"/>
</linearGradient>
</defs>
</svg>
